<?xml version="1.0" encoding="UTF-8"?>
<!-- Generator: Adobe Illustrator 13.0.2, SVG Export Plug-In  -->
<!DOCTYPE svg PUBLIC "-//W3C//DTD SVG 1.1//EN" "http://www.w3.org/Graphics/SVG/1.1/DTD/svg11.dtd" [
	<!ENTITY ns_flows "http://ns.adobe.com/Flows/1.0/">
]>
<svg version="1.1" xmlns="http://www.w3.org/2000/svg" xmlns:xlink="http://www.w3.org/1999/xlink" xmlns:a="http://ns.adobe.com/AdobeSVGViewerExtensions/3.0/" x="0px" y="0px" width="125px" height="54px" viewBox="-0.364 -0.498 125 54" enable-background="new -0.364 -0.498 125 54" xml:space="preserve">
<defs>
</defs>
<path fill="#D73937" d="M21.34,28.371c-0.277-1.123-0.542-2.236-0.784-3.348c-0.441-2.027-0.8-4.035-0.967-6.043  c-0.046-0.563-0.067-1.094-0.091-1.629c-0.035-0.85-0.05-1.672-0.033-2.453c0.027-1.389,0.127-2.67,0.274-3.828  c0.195-1.514,0.511-2.797,0.749-3.895c-0.242,0.189-0.483,0.373-0.725,0.547c-0.275,0.814-0.606,1.947-0.914,3.367  c-0.21,0.961-0.405,2.061-0.562,3.268c-1.13-0.479-2.234-1.051-3.243-1.734l0.029,1.572c0.951,0.791,1.969,1.508,3.009,2.148  c-0.144,1.789-0.189,3.775-0.063,5.951c0.04,0.684,0.099,1.359,0.166,2.033c-2.179-0.604-4.48-1.52-6.433-2.84l0.03,1.574  c2.079,1.727,4.468,3.121,6.748,4.076c0.322,2.266,0.729,4.514,1.104,6.791c-2.975-0.398-6.986-1.484-10.106-3.598l0.029,1.574  c3.304,2.746,7.391,4.646,10.577,5.285c0.651,4.736,0.922,9.719-0.236,15.439l3.714-2.176C25.049,42.348,23.026,35.205,21.34,28.371  "/>
<path fill="#D73937" d="M29.503,8.146c-2.23-0.48-5.605-1.65-8.771-4.273L20.55,3.645l-0.183,0.229  c-3.165,2.623-6.484,3.746-8.715,4.227l-0.198,0.041l-0.025,0.201c-0.83,6.055-3.81,9.512-6.163,11.344l-0.142,0.109l0.035,0.178  c0.296,1.449,0.433,2.555,0.433,3.48c0,2.99-0.779,5.783-2.32,8.297l-0.091,0.145l0.088,0.152  c-0.22,4.734,10.263,10.791,13.896,10.932c0.071,0.928,0.093-0.18,0.093,0.363c0,0.195-0.001,0.336-0.004,0.459  c-4.778-0.088-13.82-4.775-16.912-11.328c0,0-0.243-0.518-0.342-0.725c0.134-0.188,0.464-0.652,0.464-0.652  c1.091-1.537,2.391-4.107,2.391-7.643c0-1.082-0.187-2.369-0.571-3.93c0,0-0.163-0.664-0.23-0.934  c0.231-0.154,0.802-0.533,0.802-0.533c2.029-1.352,5.509-4.6,6.02-11.191c0,0,0.06-0.771,0.086-1.086  c0.309-0.045,1.077-0.16,1.077-0.16c2.079-0.314,6.088-1.342,9.566-4.709c0,0,0.652-0.633,0.937-0.91  c0.289,0.277,0.94,0.91,0.94,0.91c3.478,3.367,7.487,4.395,9.565,4.709c0,0,0.769,0.115,1.078,0.16  c0.003,0.314,0.008,1.09,0.008,1.09c0.04,4.943,2.22,6.957,3.07,7.559c-0.281,0.244-0.603,0.523-0.76,0.66  C32.34,14.252,29.84,12.379,29.503,8.146"/>
<path d="M41.057,35.375c-0.223-0.701-0.285-1.818-0.285-3.988v-5.969c0-3.959-2.269-5.49-6.002-5.49c-2.01,0-3.894,0.318-5.905,1.66  l1.245,2.393c0.958-0.574,2.235-1.117,3.894-1.117c1.597,0,2.873,0.734,2.873,2.555c0,0.094,0,0.254,0,0.383l-2.682,0.096  c-3.862,0.127-6.32,1.82-6.32,4.947c0,2.969,2.172,4.852,4.948,4.852c2.011,0,3.383-0.766,4.373-1.66l0.639,1.34H41.057   M36.877,31.705c-0.511,0.447-1.373,0.957-2.713,0.957c-1.596,0-2.458-0.861-2.458-2.105c0-1.277,0.926-1.979,3.001-2.043  l2.17-0.064V31.705z"/>
<path d="M50.474,35.695c-4.916,0-7.437-3.543-7.437-7.789c0-4.594,3.319-7.979,7.819-7.979c2.043,0,3.447,0.51,4.309,1.053  l-0.064,3.129c-1.054-0.797-2.234-1.246-3.799-1.246c-2.585,0-4.435,2.043-4.435,4.854c0,2.584,1.404,4.883,4.405,4.883  c1.436,0,2.521-0.447,3.573-1.055l0.959,2.521C54.59,34.896,52.548,35.695,50.474,35.695"/>
<path d="M64.069,35.695c-4.916,0-7.437-3.543-7.437-7.789c0-4.594,3.319-7.979,7.819-7.979c2.043,0,3.447,0.51,4.31,1.053  l-0.063,3.129c-1.055-0.797-2.234-1.246-3.799-1.246c-2.586,0-4.437,2.043-4.437,4.854c0,2.584,1.405,4.883,4.405,4.883  c1.436,0,2.521-0.447,3.574-1.055l0.957,2.521C68.188,34.896,66.145,35.695,64.069,35.695"/>
<path d="M71.741,35.375h3.831V20.279h-3.831V35.375z M73.655,17.949c-1.309,0-2.361-1.021-2.361-2.33  c0-1.246,1.053-2.299,2.361-2.299c1.341,0,2.395,1.021,2.395,2.299C76.05,16.895,74.996,17.949,73.655,17.949z"/>
<path d="M93.019,27.781c0-2.301-0.702-4.277-2.01-5.684c-1.342-1.371-3.225-2.17-5.554-2.17c-2.203,0-4.021,0.799-5.363,2.137  c-1.404,1.439-2.201,3.48-2.201,5.842c0,2.426,0.829,4.502,2.329,5.906c1.309,1.213,3.097,1.883,5.203,1.883  c2.266,0,4.117-0.799,5.457-2.172C92.285,32.121,93.019,30.078,93.019,27.781 M89.093,27.813c0,2.84-1.214,4.914-3.607,4.914  c-2.328,0-3.702-1.979-3.702-4.914c0-2.809,1.182-4.854,3.607-4.854C87.753,22.959,89.093,24.906,89.093,27.813z"/>
<path d="M105.18,35.375v-8.871c0-1.564-0.288-3.287-2.235-3.287c-1.34,0-2.648,0.701-3.829,1.596v10.563h-3.83V20.279h3.256  l0.415,1.627c1.627-1.213,3.254-1.979,5.299-1.979c2.297,0,4.753,1.373,4.753,5.426v10.021H105.18"/>
<path d="M124.33,35.375c-0.226-0.701-0.288-1.818-0.288-3.988v-5.969c0-3.959-2.268-5.49-6-5.49c-2.012,0-3.896,0.318-5.905,1.66  l1.245,2.393c0.958-0.574,2.234-1.117,3.895-1.117c1.595,0,2.871,0.734,2.871,2.555c0,0.094,0,0.254,0,0.383l-2.68,0.096  c-3.863,0.127-6.321,1.82-6.321,4.947c0,2.969,2.17,4.852,4.948,4.852c2.01,0,3.383-0.766,4.372-1.66l0.638,1.34H124.33   M120.147,31.705c-0.51,0.447-1.372,0.957-2.713,0.957c-1.596,0-2.457-0.861-2.457-2.105c0-1.277,0.925-1.979,3-2.043l2.17-0.064  V31.705z"/>
</svg>