<svg id="Capa_1" data-name="Capa 1" xmlns="http://www.w3.org/2000/svg" viewBox="0 0 114.32 83.69"><defs><style>.cls-1{fill:#b5b5b5;}.cls-2{fill:#fff;}.cls-3{fill:red;}</style></defs><path class="cls-1" d="M69.77,30.08C60.93,17.47,55.45,1.91,55.45,1.91S50,17.47,41.13,30.08,29.58,46.58,29.58,55.77,37.44,81,56.22,81c18.3,0,25.1-16,25.1-25.22S78.61,42.69,69.77,30.08Z"/><rect class="cls-2" x="36.92" y="39.59" width="8.53" height="27.58"/><path class="cls-2" d="M70.44,56.36s-.87,5-5.42,5c-5.94,0-6-7-6-8.45,0-1.65-.15-7.46,6-7.46a4.75,4.75,0,0,1,5.06,3.93l7.55-1.81S76.64,39,65.21,39C49.93,39,50.87,53.33,50.87,53.33s-.94,14.5,14.34,14.5C76.64,67.83,78,58.17,78,58.17Z"/><path class="cls-3" d="M101.31,39.51H92.12L81.83,67.24h8.48l1.42-4.79h9.51l1.8,5h9ZM93.85,56.87l2.83-10,3.22,10Z"/><path d="M26.44,47.05l-7.94.63a4,4,0,0,0-4.32-3.62s-3.11,0-3.11,1.9c0,0-.17,1.48,6.1,3,7.4,1.86,10.37,5.9,10.37,9.51S24.32,68,15,68s-12.65-5.9-12.65-10l8-.47s.71,4.71,4.79,4.71,3.93-2.43,3.93-3.06-.16-2.28-4.32-3.07S3,52.94,3,47.13,8.45,39,15.6,39,26.44,43.59,26.44,47.05Z"/></svg>