<?xml version="1.0" standalone="no"?>
<!DOCTYPE svg PUBLIC "-//W3C//DTD SVG 20010904//EN"
 "http://www.w3.org/TR/2001/REC-SVG-20010904/DTD/svg10.dtd">
<svg version="1.0" xmlns="http://www.w3.org/2000/svg"
 width="912.000000pt" height="912.000000pt" viewBox="0 0 912.000000 912.000000"
 preserveAspectRatio="xMidYMid meet">
<metadata>
Created by potrace 1.14, written by Peter Selinger 2001-2017
</metadata>
<g transform="translate(0.000000,912.000000) scale(0.100000,-0.100000)"
fill="#000000" stroke="none">
<path d="M4416 7729 c-3 -8 -17 -45 -31 -84 -14 -38 -27 -74 -28 -80 -2 -5 -7
-17 -12 -25 -5 -8 -10 -17 -10 -20 -2 -19 -104 -266 -161 -388 -13 -29 -24
-59 -24 -67 0 -8 -4 -15 -10 -15 -5 0 -10 -5 -10 -11 0 -23 -252 -547 -329
-683 -9 -16 -54 -97 -99 -180 -75 -135 -273 -465 -294 -491 -5 -5 -35 -50 -68
-100 -32 -49 -63 -95 -68 -100 -4 -6 -47 -67 -95 -135 -48 -69 -95 -136 -104
-149 -10 -13 -25 -34 -33 -46 -8 -13 -37 -56 -65 -96 -180 -263 -344 -528
-395 -639 -14 -30 -28 -56 -32 -58 -5 -2 -8 -9 -8 -16 0 -7 -10 -32 -21 -56
-47 -98 -114 -318 -125 -415 -4 -27 -8 -52 -10 -56 -16 -28 -25 -463 -11 -564
9 -67 18 -119 23 -134 2 -8 7 -30 10 -50 3 -20 10 -44 15 -53 5 -9 9 -27 9
-41 0 -13 3 -26 6 -29 3 -4 20 -49 38 -101 60 -170 160 -368 260 -511 23 -32
46 -66 51 -75 6 -9 21 -29 35 -45 158 -185 216 -242 340 -339 47 -37 92 -72
101 -79 8 -7 31 -22 50 -32 19 -11 36 -22 39 -25 11 -13 176 -98 275 -142 113
-50 322 -110 430 -124 22 -3 47 -8 55 -11 8 -3 33 -7 55 -9 22 -3 72 -7 110
-11 86 -8 335 -11 335 -4 0 3 24 5 53 5 58 1 186 13 196 19 4 3 26 7 50 11 42
6 141 30 226 55 49 15 238 91 245 99 3 3 23 15 45 25 61 30 160 89 163 98 2 4
8 8 13 8 6 0 15 5 22 10 7 6 34 27 62 48 55 41 103 83 174 152 41 40 69 71
155 170 12 14 38 48 56 75 19 28 38 52 43 53 4 2 7 7 7 12 0 5 18 36 40 69 22
33 40 62 40 65 0 2 16 32 35 65 19 34 34 64 34 66 0 3 12 31 27 63 34 74 105
269 111 307 3 17 8 37 13 45 4 8 11 33 15 55 5 22 10 47 11 55 2 8 6 31 9 50
3 19 7 46 9 60 16 89 19 144 19 295 -1 281 -29 477 -94 655 -11 30 -21 60 -22
65 -7 28 -72 171 -117 255 -28 52 -53 103 -57 113 -3 9 -9 17 -14 17 -5 0 -9
5 -9 10 0 15 -82 145 -239 378 -75 112 -140 211 -146 220 -5 9 -12 19 -15 22
-16 14 -200 283 -200 291 0 5 -4 9 -10 9 -5 0 -10 6 -10 14 0 8 -4 16 -9 18
-7 3 -115 163 -192 288 -16 25 -32 50 -36 56 -5 5 -13 19 -19 30 -6 10 -37 64
-69 119 -69 119 -90 157 -141 250 -38 71 -269 526 -271 535 -1 3 -19 43 -41
90 -22 47 -63 139 -92 205 -28 66 -60 139 -71 163 -11 24 -33 78 -50 120 -16
42 -34 86 -39 97 -5 11 -23 58 -40 104 -17 46 -34 89 -37 95 -4 6 -8 17 -9 24
-4 21 -13 26 -18 11z"/>
<path d="M1097 4785 c-1 -2 -33 -5 -72 -9 -38 -3 -83 -8 -100 -11 -259 -46
-418 -116 -538 -239 -50 -51 -117 -164 -117 -197 0 -9 -3 -19 -7 -23 -7 -7
-11 -25 -19 -106 -7 -73 -7 -68 0 -120 9 -73 14 -91 42 -150 95 -194 314 -346
649 -448 96 -29 124 -36 190 -48 17 -3 37 -7 45 -10 8 -3 29 -8 45 -11 53 -9
168 -53 206 -79 63 -43 91 -82 94 -129 2 -24 5 -47 8 -52 10 -15 -28 -107 -57
-140 -27 -31 -76 -56 -133 -69 -49 -10 -175 -12 -207 -2 -17 5 -35 10 -41 12
-33 8 -96 50 -132 89 -24 25 -43 49 -43 52 0 4 -8 19 -19 33 -23 34 -62 138
-54 146 4 3 1 6 -5 6 -6 0 -9 7 -6 15 6 15 -12 15 -211 1 -38 -3 -124 -8 -190
-12 -66 -3 -136 -7 -155 -9 -19 -1 -45 -3 -58 -4 -22 -1 -23 -5 -21 -53 8
-155 85 -320 216 -464 69 -75 248 -183 363 -219 149 -46 257 -60 445 -58 148
1 189 5 270 23 28 6 59 13 69 16 48 9 128 40 201 76 203 100 342 255 410 458
23 70 28 101 28 180 0 52 -5 113 -11 135 -6 22 -12 43 -12 47 -1 17 -75 146
-105 184 -107 132 -261 241 -445 314 -30 12 -64 26 -75 31 -18 7 -104 32 -205
59 -72 19 -245 73 -255 80 -5 4 -26 13 -45 20 -48 19 -115 66 -139 96 -35 45
-7 115 60 150 65 33 209 46 284 26 101 -28 190 -119 220 -223 14 -52 17 -56
43 -53 15 2 65 6 112 9 47 4 105 8 130 11 25 2 79 6 120 9 41 3 93 8 115 10
22 2 59 4 81 4 l41 1 -2 48 c-3 46 -29 137 -46 158 -5 6 -7 13 -4 16 3 3 -1
11 -10 18 -8 7 -15 17 -15 22 0 29 -127 165 -201 215 -91 62 -221 121 -307
138 -113 23 -153 27 -280 29 -78 1 -143 2 -145 1z"/>
<path d="M7322 4671 c-16 -42 -50 -134 -77 -206 -26 -71 -51 -139 -56 -150 -9
-20 -52 -136 -54 -145 -1 -3 -7 -18 -13 -33 -7 -16 -12 -33 -12 -38 0 -5 -4
-17 -10 -27 -9 -17 -160 -422 -175 -472 -4 -14 -7 -27 -6 -29 2 -2 -1 -7 -6
-10 -4 -3 -17 -31 -27 -61 -11 -30 -24 -66 -29 -80 -6 -14 -11 -29 -12 -35 -2
-5 -14 -39 -28 -75 -54 -135 -147 -393 -147 -406 0 -7 -3 -14 -8 -16 -4 -1
-15 -25 -24 -53 -9 -27 -33 -95 -53 -150 -21 -55 -41 -112 -45 -126 l-8 -26
336 1 337 1 28 95 c16 52 37 124 48 160 11 36 22 76 25 90 3 13 8 27 10 30 3
3 174 5 381 5 l375 0 14 -27 c8 -15 15 -31 15 -35 1 -5 3 -12 5 -18 2 -5 20
-55 40 -110 19 -55 43 -120 51 -145 8 -25 19 -49 23 -55 6 -8 614 -13 698 -6
14 1 16 24 2 49 -5 9 -28 67 -50 127 -23 61 -45 119 -50 130 -4 11 -14 38 -23
60 -36 94 -71 182 -83 212 -8 17 -14 34 -14 38 0 4 -16 48 -36 99 -20 50 -45
116 -57 146 -11 30 -26 69 -33 85 -7 17 -24 62 -38 100 -15 39 -30 79 -35 90
-11 22 -111 284 -115 300 -3 11 -16 44 -42 110 -24 58 -29 71 -64 165 -17 47
-36 94 -41 105 -5 11 -22 56 -38 100 -16 44 -50 132 -74 195 l-44 115 -366 1
-367 0 -28 -75z m430 -631 c83 -265 200 -628 208 -648 13 -31 13 -32 -12 -32
-13 0 -30 0 -38 0 -8 -1 -35 0 -60 1 -25 0 -49 0 -55 -1 -5 -1 -14 -1 -20 0
-13 2 -147 2 -160 0 -5 -1 -14 -1 -20 0 -5 1 -31 2 -57 3 -27 0 -48 3 -48 6 0
3 7 29 16 56 8 28 17 59 20 70 2 11 10 43 19 70 8 28 31 109 51 180 20 72 45
159 56 195 11 36 22 75 24 87 2 12 9 34 14 48 5 14 7 25 4 25 -4 0 -1 6 5 13
6 8 7 17 3 22 -4 4 -1 6 6 4 8 -3 27 -47 44 -99z"/>
</g>
</svg>
